# xmcd
#
# Track frame offsets:
#	150
#	12960
#	28197
#	44860
#	59953
#	75572
#	88061
#	101908
#	113527
#	126520
#	137377
#	154075
#
# Disc length: 2271 seconds
# Revision: 1
# Processed by: cddbd v1.5.2PL0 Copyright (c) Steve Scherf et al.
# Submitted via: dBpowerAMP V12.0
#
DISCID=a708dd0c
DTITLE=Shaza Leigh - Strength Within
DYEAR=2015
DGENRE=Country
TTITLE0=Teach Your Children
TTITLE1=Cross Roads
TTITLE2=Fiddlers Creek
TTITLE3=Lord I'd Forgotten
TTITLE4=The Door Was Always Open
TTITLE5=Walking By My Side
TTITLE6=Why Me Lord
TTITLE7=Bundle of Sticks
TTITLE8=The Strength Within
TTITLE9=Missing You
TTITLE10=Old Calare
TTITLE11=Beyond Vision
EXTD=
EXTT0=
EXTT1=
EXTT2=
EXTT3=
EXTT4=
EXTT5=
EXTT6=
EXTT7=
EXTT8=
EXTT9=
EXTT10=
EXTT11=
PLAYORDER=
